<?xml version="1.0" encoding="UTF-8" standalone="no" ?>
<!DOCTYPE svg PUBLIC "-//W3C//DTD SVG 1.1//EN" "http://www.w3.org/Graphics/SVG/1.1/DTD/svg11.dtd">
<svg xmlns="http://www.w3.org/2000/svg" xmlns:xlink="http://www.w3.org/1999/xlink" version="1.1" width="1080" height="1080" viewBox="0 0 1080 1080" xml:space="preserve">
<desc>Created with Fabric.js 5.2.4</desc>
<defs>
</defs>
<g transform="matrix(1 0 0 1 540 540)" id="8f499024-d7d5-403a-8c56-0aa8ee6983af"  >
<rect style="stroke: none; stroke-width: 1; stroke-dasharray: none; stroke-linecap: butt; stroke-dashoffset: 0; stroke-linejoin: miter; stroke-miterlimit: 4; fill: rgb(255,255,255); fill-rule: nonzero; opacity: 1; visibility: hidden;" vector-effect="non-scaling-stroke"  x="-540" y="-540" rx="0" ry="0" width="1080" height="1080" />
</g>
<g transform="matrix(1 0 0 1 540 540)" id="d079f512-a8f6-47de-8746-0b61ee367940"  >
</g>
<g transform="matrix(2.21 0 0 2 540 540)" id="ee62d288-d0ee-4f61-b1c9-53f4c895a7e5"  >
<path style="stroke: rgb(0,0,0); stroke-width: 0; stroke-dasharray: none; stroke-linecap: butt; stroke-dashoffset: 0; stroke-linejoin: miter; stroke-miterlimit: 4; fill: rgb(239,107,61); fill-rule: nonzero; opacity: 1;" vector-effect="non-scaling-stroke"  transform=" translate(-211.69, -250.12)" d="M 167.766 129.443 C 167.068 132.922 165.448 135.937 163.13 138.255 C 128.943 135.24 107.036 123.875 97.3021 104.276 C 70.1875 50.6927 70.5312 30.5104 55.8125 14.276 C 70.3021 23.4375 78.875 39.3281 87.6823 55.2135 C 95.1042 68.7864 102.865 82.9323 114.339 93.6041 C 127.901 106.245 143.661 111.349 160.698 111.583 C 166.375 115.641 169.156 122.599 167.766 129.443 Z M 292.812 250.755 C 286.786 236.026 289.568 225.589 301.271 219.328 C 318.193 210.396 319.698 229.766 343.224 220.833 C 363.042 213.297 364.198 228.026 360.604 246.932 C 359.677 250.875 356.667 254.005 352.724 254.932 C 348.786 255.979 344.615 254.703 341.948 251.687 C 341.135 255.396 342.526 259.224 345.427 261.776 C 348.323 264.214 352.26 264.906 355.854 263.516 C 337.891 278.594 318.073 281.495 296.401 272.214 C 301.385 274.068 307.068 272.911 311.005 269.432 C 314.948 265.833 316.682 260.385 315.411 255.281 C 310.891 259.224 313.672 260.266 307.646 259.573 C 301.62 258.76 296.286 255.63 292.812 250.755 Z M 293.156 157.974 C 297.328 151.479 298.141 143.13 294.667 135.703 L 297.214 136.167 C 313.672 138.953 323.292 135.823 336.964 125.729 C 349.016 116.802 357.359 103.578 365.245 91.1666 C 371.849 80.7291 379.266 68.5521 389.229 61.1302 C 385.521 66.8125 382.51 73.3073 379.958 79.4531 C 359.448 119.234 344.266 167.714 293.156 157.974 Z M 139.953 180.474 C 136.474 184.302 96.9583 210.745 89.0729 254.12 C 85.5989 273.141 16.9896 302.833 74.4739 353.75 C 75.75 354.443 76.9062 355.141 78.0677 355.719 C 82.1198 362.099 86.1771 368.479 90.4635 374.625 C 120.479 418.234 157.104 457.552 199.635 490.604 L 211.688 500 L 223.74 490.604 C 330.823 406.984 401.286 284.854 420.057 150.203 L 423.188 127.818 L 378.917 127.818 C 375.786 134.547 372.427 141.156 368.37 147.417 L 400.703 147.417 C 391.547 212.833 373.24 266.88 341.37 323.708 C 330.359 309.214 318.307 296.568 298.375 282.885 C 327.344 288.333 361.651 279.984 365.359 249.016 C 367.214 233.823 366.172 223.5 360.49 212.948 C 355.505 202.74 292.578 188.01 289.448 174.208 C 294.896 174.443 312.167 172.932 316.802 172.24 C 374.745 163.078 376.714 81.8906 400.24 58.4635 L 413.104 45.4739 C 353.073 46.401 361.766 139.766 292.464 127.818 C 267.896 99.1719 211.224 91.8646 176.802 103.229 C 86.875 115.99 105.766 12.651 39.4739 0.239563 C 92.3229 87.1094 66.4792 128.865 133.229 145.448 C 119.437 152.172 78.0677 167.021 75.75 192.073 C 108.312 199.724 132.536 181.172 139.953 180.474 Z M 22.6719 147.651 L 109.703 147.651 C 100.432 143.245 92.0885 137.214 85.3646 128.63 L 84.901 128.052 L 0.1875 128.052 L 3.31772 150.432 C 10.1563 199.38 23.8281 246.698 43.6458 291.12 C 46.4271 285.437 50.1354 279.984 53.9583 275 C 54.7708 273.953 55.6979 272.792 56.625 271.75 C 40.1718 232.203 28.6979 190.562 22.6719 147.651 Z M 352.495 245.422 C 355.042 243.333 356.667 240.203 356.781 236.958 C 358.406 240.667 357.359 244.958 354.115 247.51 C 350.99 250.062 346.469 250.062 343.224 247.625 C 346.583 248.208 349.943 247.396 352.495 245.422 Z M 304.167 245.307 C 300.922 242.755 299.068 239.042 298.839 234.87 C 296.865 239.391 298.141 244.729 301.964 247.859 C 305.906 250.99 311.354 250.99 315.411 248.089 C 311.469 248.901 307.411 247.859 304.167 245.307 Z" stroke-linecap="round" />
</g>
<g transform="matrix(NaN NaN NaN NaN 0 0)"  >
<g style=""   >
</g>
</g>
</svg>